<mxfile host="app.diagrams.net" modified="2023-11-15T20:45:16.925Z" agent="Mozilla/5.0 (Windows NT 10.0; Win64; x64; rv:109.0) Gecko/20100101 Firefox/119.0" version="22.1.2" etag="tgZuEz3FSswQ0mCJ9xuh" type="github">
  <diagram name="Page-1" id="Puyp_m7RrnSKs61Kt8pu">
    <mxGraphModel>
      <root>
        <mxCell id="0" />
        <mxCell id="1" parent="0" />
      </root>
    </mxGraphModel>
  </diagram>
</mxfile>
